<?xml version="1.0" encoding="UTF-8" standalone="no"?>
<svg
   xmlns:dc="http://purl.org/dc/elements/1.1/"
   xmlns:cc="http://creativecommons.org/ns#"
   xmlns:rdf="http://www.w3.org/1999/02/22-rdf-syntax-ns#"
   xmlns:svg="http://www.w3.org/2000/svg"
   xmlns="http://www.w3.org/2000/svg"
   version="1.1"
   id="svg2"
   viewBox="0 0 744.09449 1052.3622"
   height="647.41632"
   width="685.49963">
  <defs
     id="defs4" />
  <metadata
     id="metadata7">
    <rdf:RDF>
      <cc:Work
         rdf:about="">
        <dc:format>image/svg+xml</dc:format>
        <dc:type
           rdf:resource="http://purl.org/dc/dcmitype/StillImage" />
        <dc:title></dc:title>
      </cc:Work>
    </rdf:RDF>
  </metadata>
  <g
     id="layer1">
    <g
       style="fill:#000000"
       id="g3485">
      <g
         style="fill:#000000"
         id="g2409"
         transform="matrix(-1.6254791,0,0,1.6254797,941.8225,-268.22004)">
        <path
           id="path2411"
           d="m 128.1402,290.44679 0,266 0,12.96882 69.0315,0 0,-11.51113 -35.84737,0 -0.0904,-255.95769 35.93775,0 0,-11.5 -69.0315,0 z"
           style="opacity:1;fill:#000000;fill-opacity:1;fill-rule:nonzero;stroke:none;stroke-width:5;stroke-linecap:butt;stroke-linejoin:round;stroke-miterlimit:4;stroke-dasharray:none;stroke-dashoffset:0;stroke-opacity:1" />
        <path
           id="path2413"
           transform="translate(10.2292,165.00929)"
           d="m 15.8125,125.4375 0,266 0,12.96882 69.0315,0 0,-11.51113 -35.847366,0 -0.09038,-255.95769 35.93775,0 0,-11.5 -69.0315,0 z"
           style="opacity:1;fill:#000000;fill-opacity:1;fill-rule:nonzero;stroke:none;stroke-width:5;stroke-linecap:butt;stroke-linejoin:round;stroke-miterlimit:4;stroke-dasharray:none;stroke-dashoffset:0;stroke-opacity:1" />
      </g>
      <g
         style="fill:#000000"
         id="g2405"
         transform="matrix(1.6254791,0,0,1.6254797,-201.71164,-268.22004)">
        <path
           id="path2403"
           d="m 128.1402,290.44679 0,266 0,12.96882 69.0315,0 0,-11.51113 -35.84737,0 -0.0904,-255.95769 35.93775,0 0,-11.5 -69.0315,0 z"
           style="opacity:1;fill:#000000;fill-opacity:1;fill-rule:nonzero;stroke:none;stroke-width:5;stroke-linecap:butt;stroke-linejoin:round;stroke-miterlimit:4;stroke-dasharray:none;stroke-dashoffset:0;stroke-opacity:1" />
        <path
           id="path2541"
           transform="translate(10.2292,165.00929)"
           d="m 15.8125,125.4375 0,266 0,12.96882 69.0315,0 0,-11.51113 -35.847366,0 -0.09038,-255.95769 35.93775,0 0,-11.5 -69.0315,0 z"
           style="opacity:1;fill:#000000;fill-opacity:1;fill-rule:nonzero;stroke:none;stroke-width:5;stroke-linecap:butt;stroke-linejoin:round;stroke-miterlimit:4;stroke-dasharray:none;stroke-dashoffset:0;stroke-opacity:1" />
      </g>
    </g>
    <text
       id="text3481"
       y="883.90338"
       x="-163.32004"
       style="font-style:normal;font-variant:normal;font-weight:normal;font-stretch:normal;font-size:22.75671768px;line-height:125%;font-family:'DejaVu Sans';-inkscape-font-specification:Sans;letter-spacing:0px;word-spacing:0px;fill:#000000;fill-opacity:1;stroke:none;stroke-width:1px;stroke-linecap:butt;stroke-linejoin:miter;stroke-opacity:1"
       xml:space="preserve"><tspan
         style="font-style:normal;font-variant:normal;font-weight:normal;font-stretch:normal;font-size:182.8664856px;font-family:'DejaVu Serif';-inkscape-font-specification:'DejaVu Serif'"
         y="883.90338"
         x="-163.32004"
         id="tspan3483">wiki-scripts</tspan></text>
  </g>
</svg>
